<?xml version="1.0" encoding="UTF-8" standalone="no"?>
<!-- Created with Inkscape (http://www.inkscape.org/) -->

<svg
   version="1.1"
   id="svg2"
   width="337.17471"
   height="345.5"
   viewBox="0 0 337.17472 345.5"
   sodipodi:docname="LogoJeroVacio.svg"
   inkscape:version="1.2 (dc2aedaf03, 2022-05-15)"
   xmlns:inkscape="http://www.inkscape.org/namespaces/inkscape"
   xmlns:sodipodi="http://sodipodi.sourceforge.net/DTD/sodipodi-0.dtd"
   xmlns="http://www.w3.org/2000/svg"
   xmlns:svg="http://www.w3.org/2000/svg">
  <defs
     id="defs6" />
  <sodipodi:namedview
     id="namedview4"
     pagecolor="#ffffff"
     bordercolor="#000000"
     borderopacity="0.25"
     inkscape:showpageshadow="2"
     inkscape:pageopacity="0.0"
     inkscape:pagecheckerboard="true"
     inkscape:deskcolor="#d1d1d1"
     showgrid="false"
     inkscape:zoom="2"
     inkscape:cx="157"
     inkscape:cy="163"
     inkscape:window-width="1920"
     inkscape:window-height="1057"
     inkscape:window-x="-8"
     inkscape:window-y="-8"
     inkscape:window-maximized="1"
     inkscape:current-layer="g8" />
  <g
     inkscape:groupmode="layer"
     inkscape:label="Image"
     id="g8"
     transform="translate(-5.5)">
    <path
       id="rect558"
       style="fill:#000000;stroke-width:1.66507"
       d="M 5.5,3.8965922e-7 V 345.5 H 342.6747 V 3.8965922e-7 Z M 144.49677,27.33691 c 9.08793,-0.03613 13.59385,5.556058 16.54652,18.644116 1.96403,8.705794 2.11599,11.695146 0.8683,17.24248 l -1.05366,4.686232 1.08618,3.837455 c 1.0812,3.820596 1.10094,8.420151 0.0682,14.878208 l -0.32196,2.019549 2.03905,-0.852047 c 5.89507,-2.463127 11.83562,-7.536247 14.26683,-12.185511 1.5905,-3.041566 1.68131,-3.534148 1.68131,-9.07653 0,-5.814347 -0.0213,-5.902219 -2.36101,-10.923702 -1.29715,-2.783981 -3.03274,-6.16765 -3.8602,-7.518785 -0.82747,-1.35115 -1.5057,-3.092513 -1.5057,-3.869975 0,-0.777447 -0.28928,-1.877677 -0.64391,-2.445549 -0.45679,-0.731424 -0.49185,-1.467238 -0.12035,-2.523604 l 0.52359,-1.489451 43.14524,-0.152855 c 23.73003,-0.0835 43.92718,-0.0144 44.8818,0.156109 3.59913,0.642356 3.40556,-1.803813 3.73015,46.901365 l 0.29268,43.997255 1.48943,0.77075 c 0.81967,0.42384 1.58196,0.77075 1.69434,0.77075 0.11243,0 1.12169,-1.33144 2.24068,-2.95614 4.33103,-6.28847 9.92951,-9.94134 16.68311,-10.88794 7.87619,-1.10398 16.06971,1.27502 22.30921,6.48138 4.66941,3.89624 9.27695,10.67888 11.44079,16.84246 1.50503,4.28702 1.86131,12.0624 0.787,17.1612 -2.05376,9.74742 -9.31925,19.38275 -17.4311,23.12221 -5.47182,2.52244 -9.59216,3.27185 -13.52536,2.45531 -7.71339,-1.6013 -12.52727,-4.19645 -17.91241,-9.64889 -3.18846,-3.22832 -4.33317,-3.68096 -6.0716,-2.40978 -0.95856,0.70091 -1.01881,2.58128 -1.41792,45.2916 -0.27365,29.28357 -0.60834,44.91749 -0.97562,45.60378 -0.30739,0.57437 -1.45221,1.28048 -2.54636,1.56751 -1.58831,0.41663 -78.35215,2.79198 -88.1734,2.72848 -2.44939,-0.0167 -2.53011,0.0346 -2.53011,1.55124 0,1.37418 0.39876,1.78157 3.25533,3.30409 4.60265,2.45321 7.66119,5.63942 9.86027,10.27004 7.29547,15.36219 -1.7946,32.44817 -19.1547,36.00044 -3.59017,0.73462 -8.18069,0.34834 -12.78714,-1.07645 l -3.10898,-0.9626 -2.39678,1.69106 c -2.20232,1.55299 -2.76839,1.69615 -7.01471,1.79189 -2.54084,0.0573 -5.57911,-0.12711 -6.7513,-0.40975 -6.01094,-1.44977 -20.4419,-6.8091 -26.51739,-9.84726 -6.77793,-3.38945 -11.283998,-7.36219 -17.314024,-15.27499 -4.612598,-6.05279 -8.958671,-10.40296 -11.860296,-11.87331 -3.525179,-1.78636 -8.686632,-6.69848 -10.65378,-10.1367 -2.353316,-4.11315 -4.253724,-12.09268 -4.253724,-17.87013 0,-4.59976 -0.02879,-4.71153 -1.463437,-5.39844 -2.906807,-1.39179 -6.166657,-9.70019 -9.151316,-23.3336 -1.794177,-8.19551 -3.76915,-19.62335 -3.76915,-21.7954 0,-0.80515 -0.599303,-3.17667 -1.330096,-5.26834 -0.730795,-2.0917 -1.702164,-5.9686 -2.159375,-8.61799 -0.765749,-4.43727 -0.759909,-5.0596 0.06179,-7.87976 0.985091,-3.38089 0.983409,-3.39589 0.465046,-14.86196 -0.385917,-8.53638 0.160307,-13.85452 1.736606,-16.9238 0.465023,-0.90544 1.984683,-2.89578 3.375651,-4.4228 2.702375,-2.96671 2.843611,-3.41808 4.240695,-13.47334 0.305379,-2.19786 0.824637,-4.8378 1.154489,-5.86348 0.658278,-2.04687 3.321406,-6.19313 4.159402,-6.47812 0.296453,-0.10077 0.619194,-3.10689 0.734965,-6.84237 0.305336,-9.85206 1.756508,-13.633112 7.57408,-19.714042 l 2.806539,-2.930128 0.178854,-8.045615 0.182108,-8.045615 2.52035,-5.079743 c 3.749222,-7.552414 11.719878,-15.632738 18.793717,-19.057132 1.50759,-0.729797 2.94425,-1.964614 3.713881,-3.183768 3.944485,-6.248483 13.264935,-10.785258 27.984055,-13.629443 2.49093,-0.48131 7.36582,-1.690085 10.83592,-2.686204 4.1595,-1.19402 7.69925,-1.83187 10.72858,-1.84392 z m 0.85203,6.016322 c -2.50842,-0.20278 -5.66309,0.305565 -9.68791,1.453676 -3.04564,0.868803 -8.47164,2.196401 -12.05868,2.949635 -6.80883,1.429751 -13.45799,3.45726 -16.68312,5.086235 -1.04099,0.525793 -3.12706,2.066119 -4.63422,3.421184 -2.3677,2.128755 -2.78254,2.802394 -3.06019,4.969154 -0.60297,4.705479 -1.44906,6.991221 -3.29109,8.887915 -1.994415,2.05358 -3.556795,2.361925 -5.063491,0.99838 -1.276177,-1.154949 -1.230441,-2.378091 0.152855,-4.136628 3.073107,-3.906799 -2.379286,-0.116463 -7.518771,5.226076 -4.070451,4.231238 -7.460267,9.966739 -7.460267,12.624541 0,1.365704 2.822131,1.383569 5.349665,0.0357 5.980288,-3.188764 12.815214,-7.772311 14.097719,-9.453758 1.6181,-2.121442 4.14144,-3.414678 6.66025,-3.414678 3.12718,0 2.56306,2.800076 -0.70246,3.486225 -1.02399,0.21516 -2.66647,1.362105 -4.14964,2.897593 -1.35014,1.397778 -4.663069,3.827061 -7.362676,5.401677 -4.025435,2.347946 -4.866296,3.056552 -4.663473,3.931761 0.136041,0.586947 0.667967,2.68537 1.180501,4.663473 0.875987,3.380933 0.878463,3.812664 0.04549,7.193583 -0.487342,1.978074 -1.604876,5.091173 -2.484577,6.91714 -0.879715,1.825982 -1.731804,3.982074 -1.892706,4.793574 -0.255368,1.28792 1.004498,9.00135 1.560998,9.55784 0.113007,0.113 1.469166,-0.42701 3.01466,-1.20327 2.493329,-1.25233 3.26843,-1.38725 6.868367,-1.174 4.891126,0.28971 9.118826,1.939 9.118826,3.5545 0,1.48496 -1.56725,1.81618 -4.19843,0.88783 -6.723935,-2.37234 -10.353844,-1.37553 -16.315634,4.48786 -5.476448,5.38604 -9.854192,7.43437 -12.211539,5.71064 -1.645012,-1.20286 -0.857272,-2.73963 1.502465,-2.93338 2.532385,-0.20792 4.04235,-1.10589 7.606585,-4.52687 l 2.757752,-2.64721 -1.008125,-1.38862 c -1.254626,-1.7314 -2.080573,-5.30023 -2.097589,-9.06677 -0.01008,-2.27221 0.457745,-3.900997 2.208149,-7.700907 1.225531,-2.660465 2.326928,-5.958738 2.461831,-7.362706 0.239359,-2.49117 -0.594145,-7.086838 -1.479705,-8.15619 -0.245895,-0.296928 -1.787199,-0.458104 -3.424437,-0.357722 l -2.975619,0.182122 v 2.081321 c 0,1.590236 0.210885,2.084574 0.891045,2.084574 0.48976,0 1.327526,0.396317 1.863439,0.881327 1.983789,1.79529 1.269612,3.171705 -5.034208,9.687921 -5.085429,5.256754 -6.155932,6.6653 -6.956168,9.14481 -1.237321,3.83377 -1.667426,10.58452 -0.949606,14.89775 0.692511,4.16115 -0.05499,5.87974 -2.552885,5.87974 -2.091945,0 -2.978685,2.04375 -4.055321,9.35296 -0.472644,3.20867 -1.085086,6.86129 -1.362623,8.11716 -0.394835,1.7867 -0.277422,3.18019 0.54635,6.40658 1.928797,7.5544 6.063698,16.34273 7.886268,16.76117 1.52485,0.35011 6.538228,0.0691 10.5237,-0.59187 2.989928,-0.49594 4.335104,-0.47647 6.780567,0.10725 6.711337,1.60193 11.521288,5.94513 16.221338,14.64082 3.72501,6.89179 6.30066,10.49013 11.04728,15.43434 5.55308,5.7842 7.54226,6.9297 13.1351,7.56755 5.83135,0.66508 8.53466,1.62194 13.56766,4.80008 2.30571,1.45596 4.92605,2.74855 5.82121,2.87158 0.89516,0.12308 3.59833,0.47379 6.00656,0.7805 5.38629,0.68596 7.60986,1.72345 7.60986,3.54801 0,1.5461 -0.24144,1.57309 -4.79681,0.54634 -1.90483,-0.42936 -5.28857,-0.99673 -7.51879,-1.2618 -3.49974,-0.41597 -4.57643,-0.8202 -7.87326,-2.95289 -5.1728,-3.34629 -6.87692,-3.98537 -12.86845,-4.82282 -6.58031,-0.9197 -8.37383,-1.80919 -13.51886,-6.69927 -5.23763,-4.97804 -9.34664,-10.44876 -13.37252,-17.80183 -4.879509,-8.91216 -9.586313,-12.93412 -15.840827,-13.53511 -3.705848,-0.35608 -11.512895,1.31931 -13.193666,2.83254 -2.354569,2.11995 -4.904891,3.08915 -8.25699,3.13825 -2.92817,0.0429 -3.212905,-0.0541 -3.369143,-1.15447 -0.188845,-1.32988 -0.02476,-1.41619 4.169148,-2.24394 4.533234,-0.89476 4.73502,-1.18171 2.474831,-3.50898 -2.243432,-2.30999 -4.630463,-7.09865 -6.604966,-13.24894 -0.760345,-2.36837 -1.55439,-4.50382 -1.762612,-4.74803 -0.452173,-0.53033 -2.374883,1.40934 -3.606552,3.63908 -0.721241,1.30569 -0.884342,3.20912 -0.887815,10.39035 -0.0068,14.21735 1.274648,17.50968 8.185459,21.01163 2.815263,1.42661 9.59704,3.7397 9.944843,3.39191 0.120925,-0.12092 -0.03858,-1.15489 -0.354483,-2.2992 -1.04495,-3.78449 0.569802,-12.4192 2.679698,-14.32862 0.570579,-0.51638 1.343059,-0.73001 1.889468,-0.52033 1.042978,0.40021 0.934793,1.74621 -0.42927,5.2651 -1.166307,3.0087 -1.092024,8.52616 0.165855,12.18224 0.572176,1.66307 2.387477,5.79084 4.03256,9.17411 1.645056,3.38325 3.235003,7.51413 3.534998,9.18058 1.591042,8.83805 3.21731,13.66074 5.567545,16.51078 0.979277,1.1875 1.064572,1.19952 2.770766,0.34796 0.967919,-0.48308 3.1263,-1.00301 4.796807,-1.15448 3.718756,-0.33721 5.952456,0.50294 10.618006,4.00004 2.71022,2.03144 3.32021,2.76197 3.2098,3.83745 -0.21518,2.09583 -1.50856,1.83525 -5.21633,-1.04391 -4.57218,-3.55042 -6.16725,-4.0519 -10.165967,-3.20329 -1.726362,0.36634 -3.138248,0.74795 -3.138248,0.84879 0,0.10077 1.165688,1.92831 2.588644,4.05859 3.818841,5.71712 3.994139,6.15718 4.312243,10.76759 l 0.292682,4.23095 2.871576,1.72359 c 3.07972,1.84646 9.34741,3.56194 16.30915,4.4651 3.38328,0.43891 5.56024,1.16989 10.54971,3.54475 6.01665,2.8638 6.42742,2.97932 9.59037,2.71549 2.24662,-0.18742 5.47442,-1.14253 10.08141,-2.98866 3.72708,-1.49353 7.1447,-2.57553 7.59358,-2.40329 0.98437,0.37775 1.07315,1.99816 0.14962,2.722 -1.18006,0.92477 -13.05104,5.45169 -15.89614,6.06185 -3.85529,0.82683 -5.80954,0.38729 -13.67496,-3.07646 -1.00859,-0.44415 -0.8249,3.138 0.4,7.81148 1.71986,6.56195 1.4494,9.76484 -1.55448,18.43924 -1.43173,4.13448 -2.97143,8.22953 -3.42118,9.09929 -0.80533,1.55729 -0.78455,1.61509 1.37562,3.84069 1.20644,1.24301 2.92606,2.63958 3.82119,3.10247 2.33578,1.20789 9.08076,0.99303 12.98551,-0.413 8.34736,-3.0057 11.56762,-3.3845 11.56762,-1.35937 0,1.27071 -0.25597,1.3969 -7.99034,3.87322 -5.46324,1.74918 -7.09294,2.04576 -11.19037,2.04556 -5.70954,-2.5e-4 -7.50767,-0.72325 -11.25216,-4.53665 l -2.54637,-2.59513 -3.22281,0.29268 c -3.87388,0.35264 -7.01924,-0.69283 -11.77901,-3.91551 -3.8361,-2.5973 -6.630961,-4.07286 -6.630961,-3.50246 0,0.23155 1.183006,1.88537 2.630921,3.67483 4.95488,6.12365 10.41021,9.43159 23.74338,14.40666 15.10051,5.63455 19.65931,6.18409 24.37427,2.93337 2.73978,-1.88892 3.30617,-1.90782 9.19359,-0.34147 5.60888,1.49226 7.80731,1.48893 12.27982,-0.013 6.3472,-2.13068 9.57261,-4.80377 12.55625,-10.41312 1.10132,-2.07055 1.26601,-3.1129 1.26831,-7.97734 0.003,-5.14969 -0.12452,-5.84181 -1.5805,-8.71554 -1.83674,-3.62498 -4.72978,-6.32696 -8.66026,-8.08464 -3.58345,-1.6025 -4.69628,-3.42776 -5.15129,-8.44888 -0.41522,-4.58207 -0.19105,-5.37652 1.71384,-6.08789 0.80788,-0.3017 20.95895,-1.04968 46.44934,-1.72036 24.76273,-0.65151 45.20999,-1.35053 45.43792,-1.55447 0.22793,-0.20393 0.5938,-20.03381 0.81301,-44.06556 0.44732,-49.04011 0.0936,-45.26756 4.49762,-47.77943 4.92236,-2.80744 7.16824,-2.23062 12.90421,3.30736 4.6166,4.45722 7.33744,6.06914 12.73187,7.5448 4.92679,1.34775 6.42934,1.17779 11.90583,-1.3496 5.86429,-2.70641 10.29665,-7.69722 13.24568,-14.91726 1.37526,-3.36706 1.51972,-4.32539 1.50897,-9.85702 -0.013,-6.99947 -0.6758,-9.18648 -4.80331,-15.83433 -4.07175,-6.55803 -10.30483,-10.8594 -17.02135,-11.74647 -4.47997,-0.59168 -9.45748,0.0911 -12.14324,1.66505 -2.90359,1.70163 -7.1069,6.2083 -8.15293,8.74157 -1.23627,2.99393 -2.22617,3.8537 -4.44233,3.8537 -2.06529,0 -7.49106,-2.42048 -9.38548,-4.18541 -1.08686,-1.01256 -1.10254,-1.48778 -1.43417,-44.527367 -0.18436,-23.928394 -0.47633,-43.738385 -0.65041,-44.020025 -0.37684,-0.609736 -79.30722,-0.720209 -79.00256,-0.11056 7.74751,15.50257 8.11423,16.6569 7.79198,24.679957 -0.19321,4.81021 -0.36659,5.488613 -2.47483,9.743201 -1.76178,3.555425 -2.97562,5.198825 -5.45374,7.385451 -6.21429,5.483388 -14.08226,9.473279 -18.67989,9.473279 -4.31332,0 -5.72086,-1.878167 -3.96101,-5.281356 0.42646,-0.824665 1.05828,-4.114761 1.4049,-7.31065 0.55804,-5.145057 0.52344,-6.174863 -0.29269,-8.982223 -1.97869,-6.80648 -3.53231,-8.315868 -9.34647,-9.066769 -1.61176,-0.208179 -3.35061,-0.746612 -3.86345,-1.200023 -1.23591,-1.092687 -1.18496,-2.932287 0.11704,-4.110615 0.88161,-0.797846 1.58816,-0.89185 4.35454,-0.578871 1.8158,0.205443 4.52135,0.835909 6.00981,1.401651 1.48846,0.565727 2.75123,1.027502 2.80654,1.027646 0.0553,1.44e-4 0.25724,-1.061937 0.45206,-2.361003 0.36698,-2.447277 -1.58071,-13.240769 -3.23581,-17.93191 -1.63497,-4.633904 -4.02103,-6.949906 -8.20174,-7.287891 z m -11.87656,4.195176 c 2.26172,0.08494 5.94418,0.101346 8.1822,0.03901 4.38785,-0.12222 5.3397,0.457471 3.92527,2.383763 -0.64371,0.876663 -1.55619,0.985107 -8.35458,0.995141 -4.19793,0.0058 -8.0767,0.222185 -8.61798,0.478057 -0.54128,0.255871 -2.62446,2.391781 -4.63095,4.748019 l -3.64883,4.282977 1.66831,1.232542 c 0.9179,0.677209 1.80566,1.449977 1.97076,1.717092 0.16617,0.268986 1.99615,-0.08321 4.1041,-0.790259 4.68223,-1.570356 10.40409,-2.394733 13.24244,-1.905706 1.81568,0.312821 2.13337,0.563971 2.13337,1.691064 0,1.287765 -0.13144,1.333039 -4.89439,1.668318 -6.57866,0.4631 -16.20277,3.697484 -18.45874,6.20495 -0.53454,0.594145 -1.14935,2.360557 -1.36587,3.925254 -0.5349,3.865411 -1.11061,4.742765 -4.696,7.154557 -7.28476,4.900255 -15.0766,12.206673 -15.0766,14.136751 0,0.276458 0.56644,1.635669 1.25856,3.017914 0.69209,1.382259 1.67573,3.78655 2.18539,5.343157 0.50965,1.556593 1.86227,4.428476 3.00491,6.383821 2.16037,3.69694 2.52251,5.3117 1.43741,6.39682 -0.90378,0.90377 -1.31508,0.80619 -2.26019,-0.5431 -0.45619,-0.65131 -0.83252,-1.41238 -0.83252,-1.68783 0,-0.27545 -0.71642,-1.61858 -1.59351,-2.9854 -0.87708,-1.36682 -2.31654,-4.486784 -3.20005,-6.933413 -2.38331,-6.600072 -3.86908,-8.78523 -8.039103,-11.82779 -3.661191,-2.671262 -4.558369,-4.237629 -2.813047,-4.907366 0.899639,-0.345227 4.053507,1.308279 6.822834,3.577292 l 1.564246,1.281316 2.03904,-2.582152 c 2.29921,-2.908693 7.45492,-7.309657 12.81968,-10.943223 3.68967,-2.49903 3.84606,-2.756212 4.3155,-7.099276 0.21943,-2.030058 0.63445,-2.731149 2.70896,-4.569152 2.30239,-2.039875 2.39337,-2.219751 1.50572,-2.988647 -1.96795,-1.704697 -2.90689,-1.937319 -4.74153,-1.170755 -4.3966,1.837023 -10.37895,-0.193523 -7.89276,-2.679698 0.60577,-0.605777 1.13271,-0.661748 2.32198,-0.247162 3.44343,1.200382 7.29195,-0.940753 12.20175,-6.790328 4.26845,-5.085429 6.44781,-6.204042 11.70422,-6.006575 z m 0.20164,18.159566 c 0.1701,-0.03829 0.36836,-0.03412 0.60812,0 1.62055,0.230607 1.70751,1.876382 0.44554,8.500912 -0.57805,3.034469 -1.21891,7.37775 -1.42441,9.648894 l -0.37399,4.126882 h 1.65206 c 0.90742,0 3.22278,0.519215 5.14801,1.151221 3.9029,1.281229 5.32695,2.798435 3.72363,3.970788 -0.76451,0.559048 -1.38147,0.496915 -3.54151,-0.354483 -1.43886,-0.567153 -3.90603,-1.180516 -5.48298,-1.365862 l -2.86834,-0.338216 -1.69757,2.331736 c -2.31007,3.169905 -3.32001,5.234959 -5.31388,10.858662 -2.10396,5.934232 -3.00928,10.589182 -3.49597,17.970942 l -0.37724,5.71714 1.78537,0.94309 c 0.98269,0.51905 2.71923,1.84094 3.85697,2.93989 1.13773,1.09893 2.2499,2.00001 2.47157,2.00001 0.22165,0 1.48074,-0.60575 2.80003,-1.3431 4.55422,-2.54542 5.92417,0.24917 1.46668,2.99191 -1.46526,0.90158 -2.66069,1.79886 -2.65694,1.99351 0.003,0.19466 0.60122,2.21857 1.3301,4.50088 0.97337,3.04786 1.32684,5.33057 1.32684,8.58872 0,7.4786 0.65784,9.82661 3.4537,12.3351 2.49687,2.24023 3.01349,3.61953 1.56424,4.17567 -1.32618,0.5089 -1.49481,0.43807 -3.92524,-1.64231 -3.19995,-2.73902 -3.83495,-4.61795 -4.27973,-12.68633 -0.41517,-7.53167 -1.82274,-12.77251 -4.52688,-16.85873 -1.45253,-2.19495 -4.38382,-4.34745 -5.21958,-3.83093 -0.26843,0.16584 -1.06167,-0.006 -1.76262,-0.38051 -1.0111,-0.54113 -1.71825,-0.54961 -3.41142,-0.0423 -3.06244,0.91754 -8.43533,5.19807 -10.61801,8.45864 -1.94397,2.90397 -3.46218,3.56348 -4.03583,1.75613 -1.11308,-3.50707 9.15741,-12.88287 15.17743,-13.85708 l 1.86344,-0.30245 0.34796,-5.96429 c 0.71191,-12.250826 3.91529,-22.428263 9.64564,-30.63776 1.95314,-2.798118 2.16646,-3.451531 2.60491,-7.99035 0.46328,-4.796015 1.5867,-11.347156 2.65694,-15.502614 0.32181,-1.249472 0.57261,-1.748604 1.08296,-1.86344 z m 103.27925,34.793909 v 1.902452 1.902467 l -5.45697,0.640658 c -4.63353,0.543644 -5.66095,0.841767 -6.79357,1.974 l -1.33336,1.333356 -0.33497,45.678584 c -0.33459,45.98655 -0.43084,48.1663 -2.38377,54.13071 -3.21233,9.81083 -10.77459,18.63621 -19.45064,22.69621 -3.34005,1.563 -8.58256,2.44883 -10.73507,1.81465 v 0.003 c -0.81108,-0.23897 -0.9301,-1.00018 -0.9301,-5.84723 0,-6.2789 0.307,-6.76977 3.28135,-5.22607 1.00195,0.52002 3.40928,1.01793 5.509,1.13822 6.1081,0.34993 8.81428,-1.74299 10.29281,-7.95456 0.66421,-2.79049 0.83592,-10.46407 1.0179,-45.57127 0.2166,-41.7874 -0.18454,-58.68979 -1.46344,-61.496649 -0.93003,-2.041156 -2.83953,-2.722871 -8.38058,-2.998422 l -4.93015,-0.247147 v -1.93136 -1.934987 l 21.04741,-0.0029 z m -80.5798,10.390367 c 2.34996,0.10106 5.37775,2.45499 4.59516,4.49436 -0.41257,1.07514 -1.73091,1.07346 -2.92362,-0.007 -0.85953,-0.77786 -1.2101,-0.71309 -4.38052,0.80001 -4.39089,2.0956 -7.09974,2.10219 -13.4148,0.0325 -5.88795,-1.92977 -7.55007,-1.96868 -10.12044,-0.22438 -2.39091,1.62251 -3.60734,1.3748 -3.36915,-0.68618 0.12741,-1.10246 0.75706,-1.78503 2.56589,-2.78053 3.07244,-1.69092 6.42928,-1.64875 11.45378,0.14635 5.88418,2.10212 7.1996,2.21617 10.30257,0.8813 1.49564,-0.64339 2.99522,-1.50475 3.33338,-1.9122 0.46651,-0.56213 1.17441,-0.77842 1.95775,-0.74474 z m -0.18863,19.31729 c 1.51903,-0.12136 4.19919,1.6547 4.93989,3.46997 0.60648,1.48632 0.4971,1.79486 -1.66831,4.77078 -3.14878,4.32735 -5.79331,6.38458 -9.80824,7.62936 -4.0511,1.25598 -6.10625,1.32939 -7.0017,0.2504 -1.04116,-1.25452 0.18493,-2.25306 3.6358,-2.95612 4.48113,-0.91296 7.54772,-2.78377 9.67816,-5.90576 1.79653,-2.63267 1.81592,-2.71779 0.79026,-3.4277 -2.681,-1.8556 -2.89914,-2.56011 -1.13822,-3.65857 0.1605,-0.10005 0.35536,-0.15503 0.57236,-0.17236 z m -40.95334,4.99518 c 1.3273,-0.50932 2.27951,1.18662 2.66021,4.74153 0.47279,4.4149 0.17534,5.83528 -1.92848,9.21962 -1.58392,2.54801 -1.68324,2.9873 -1.44068,6.37732 0.28924,4.04239 1.37587,6.22909 3.33989,6.72203 0.69767,0.1751 1.41969,0.79999 1.60653,1.38862 0.18682,0.58863 1.10415,1.46279 2.03579,1.94149 3.14059,1.61376 7.80248,5.0005 9.92856,7.21309 1.96271,2.0426 2.29955,2.19155 4.77081,2.10409 1.46263,-0.0518 3.90166,-0.32973 5.4212,-0.61789 3.63378,-0.68913 12.00392,-0.67339 13.31071,0.0261 1.36365,0.7298 1.31695,2.48407 -0.078,2.92686 -0.61002,0.19361 -2.7093,0.19126 -4.66347,-0.003 -2.31128,-0.23 -5.32201,-0.0631 -8.61473,0.47482 -2.78398,0.4548 -5.78109,0.89047 -6.66025,0.96911 -1.44953,0.12971 -1.58324,0.30069 -1.4309,1.8244 0.094,0.94062 -0.65941,4.10752 -1.71385,7.19358 -1.10027,3.22021 -2.03327,7.17477 -2.24067,9.50905 -0.19528,2.19789 -0.58905,4.29392 -0.87807,4.66022 -0.70137,0.88902 -1.71799,0.84186 -2.51383,-0.11703 -0.94719,-1.14126 0.17495,-8.78251 2.13984,-14.55952 0.86624,-2.54677 1.57726,-5.48105 1.57726,-6.52366 0,-1.04262 0.27082,-2.17003 0.60489,-2.5041 0.97246,-0.97246 -4.9338,-6.34994 -10.83589,-9.86353 -2.83052,-1.68505 -5.38629,-3.06345 -5.67814,-3.06345 -1.82732,0 -15.28944,-4.68815 -18.46199,-6.42935 -2.101158,-1.15318 -5.194664,-2.37088 -6.878142,-2.70896 -4.728412,-0.94961 -6.094807,-2.15942 -8.913914,-7.89603 -1.360478,-2.76848 -3.11225,-5.5824 -3.89272,-6.25374 -2.702472,-2.3246 -7.955814,-1.18004 -10.182245,2.21791 -0.711802,1.08634 -0.851772,2.34386 -0.695952,6.28626 0.186945,4.72944 0.14999,4.93388 -0.965845,5.09275 -1.550503,0.22073 -2.269417,-1.22953 -2.650446,-5.36268 -0.592187,-6.42398 1.858704,-10.53445 7.333425,-12.30257 3.443267,-1.11207 4.482215,-1.09429 7.170824,0.12682 2.759854,1.25351 5.179477,4.18407 6.611445,8.0131 1.676236,4.4822 3.020879,5.89843 6.152923,6.48138 1.457822,0.27134 5.407247,1.78606 8.777337,3.3659 5.63865,2.64332 13.67998,5.45845 14.17578,4.96265 0.11474,-0.11474 -0.0515,-1.61942 -0.37075,-3.34637 -0.77575,-4.19649 -0.29016,-6.72067 2.01304,-10.45217 l 1.92198,-3.11547 -0.57887,-3.49599 c -0.61681,-3.72226 -0.47387,-4.76643 0.71544,-5.22282 z m 33.18414,28.06213 c 1.17077,0.17832 2.90931,0.91735 5.18056,2.21466 2.32918,1.33042 4.49704,2.4206 4.81631,2.42279 0.31928,0.001 0.8532,-0.59422 1.18701,-1.32685 0.34596,-0.75931 1.05528,-1.33334 1.6488,-1.33334 2.11556,0 1.8332,3.54244 -0.46505,5.84072 -1.38977,1.38977 -1.49875,1.38151 -4.89762,-0.43903 -7.48154,-4.00734 -9.24238,-5.19724 -9.24238,-6.22446 0,-0.95138 0.6016,-1.33282 1.77237,-1.15449 z m -73.269164,21.39211 c 0.285095,-0.0199 0.59701,0.1405 1.092716,0.46504 2.774307,1.81673 3.746314,4.38323 5.0537,13.33676 0.985107,6.74632 4.052499,9.40892 12.078205,10.49118 9.144493,1.23314 9.777363,1.55757 19.951443,10.23101 5.98618,5.10323 7.00699,5.63683 12.05218,6.27649 4.87657,0.61829 7.63538,2.05196 9.3432,4.86185 2.57124,4.2305 2.06014,4.21989 6.29601,0.15286 4.41033,-4.23463 4.95727,-4.60975 6.11389,-4.16591 1.57782,0.60548 0.85496,2.17106 -2.46181,5.32363 -1.81973,1.72965 -4.0925,4.00923 -5.05046,5.06348 l -1.74312,1.91548 1.06993,3.85369 c 2.10794,7.60672 5.86776,12.96557 9.62613,13.71723 1.83337,0.36669 2.86358,1.83242 1.93823,2.75777 -0.85818,0.85817 -3.03838,0.76073 -4.93014,-0.22115 -5.02189,-2.6065 -7.92475,-7.61383 -10.70255,-18.46852 -2.29664,-8.97435 -3.69215,-10.62833 -9.54483,-11.30418 -6.4259,-0.74208 -8.79627,-2.08773 -17.36607,-9.86354 -5.1415,-4.66511 -7.2724,-5.64197 -14.572512,-6.66674 -11.289644,-1.58478 -14.675746,-5.24025 -16.17906,-17.46363 -0.279063,-2.26904 -0.893247,-4.66543 -1.365876,-5.32687 -0.472616,-0.66146 -1.233104,-1.71295 -1.687811,-2.33824 -0.750858,-1.03252 -0.745258,-1.21903 0.05845,-2.02279 0.38588,-0.38588 0.64502,-0.58509 0.930086,-0.6049 z m 89.883994,6.8814 c 0.24717,0.0213 0.49835,0.11473 0.80326,0.25365 1.54042,0.70185 5.34623,8.14843 4.83909,9.47003 -0.66391,1.73013 -2.66605,0.58641 -4.04883,-2.31547 -0.73263,-1.53746 -1.47907,-2.79573 -1.65857,-2.79678 -0.17949,-0.001 -1.26079,0.74004 -2.40002,1.64879 -3.85557,3.07546 -6.97658,4.30292 -11.99689,4.71876 -4.71557,0.39063 -6.87951,1.24947 -8.3513,3.31061 -0.76337,1.06902 -2.50215,1.30219 -3.05372,0.40976 -0.70483,-1.14045 0.98885,-3.7524 3.32037,-5.11877 1.73283,-1.0155 3.56037,-1.505 6.90416,-1.84392 5.67904,-0.57563 8.44395,-1.78143 12.179,-5.31387 2.0169,-1.90751 2.72197,-2.48671 3.46345,-2.42279 z M 49.6306,181.91434 c -0.405194,0.0718 -0.766509,0.38696 -0.871554,0.90408 -0.289028,1.42282 0.556954,7.03461 1.466683,9.72369 0.674241,1.99299 1.280298,2.66814 3.590286,3.99679 2.219665,1.27671 3.12178,2.24018 4.481351,4.79355 1.548287,2.9078 2.03095,4.83975 3.154516,12.60828 0.25734,1.77925 0.537541,2.05719 3.161008,3.12199 1.583038,0.64249 4.301922,1.33627 6.042349,1.54148 3.426813,0.40406 4.510762,1.03411 5.684612,3.3041 1.602257,3.09842 -0.682967,4.24738 -3.060194,1.53824 -1.132606,-1.29072 -1.826442,-1.60003 -3.600038,-1.60003 -1.208055,0 -3.055328,-0.35718 -4.107376,-0.79676 -2.826535,-1.18099 -3.456871,-1.06835 -2.855313,0.51384 0.370132,0.97352 0.292768,1.51862 -0.295935,2.10734 -2.043819,2.04382 -3.658715,-1.47373 -4.504125,-9.81475 -0.606324,-5.98215 -1.522359,-9.47456 -3.121981,-11.89932 l -0.995141,-1.50896 -0.367482,2.45204 c -0.442586,2.95138 0.259585,7.92309 2.682966,18.94657 1.845661,8.39563 4.520622,17.24483 5.694372,18.84576 0.599774,0.81805 0.870847,0.80425 3.674839,-0.18213 2.717545,-0.95597 3.459117,-1.00192 7.232611,-0.4683 3.674867,0.51969 4.446153,0.47716 6.130149,-0.32195 1.059634,-0.50283 2.360427,-0.83067 2.8911,-0.72847 1.452007,0.27964 1.158721,2.04265 -0.549604,3.31061 -1.350243,1.00218 -2.162441,1.11434 -7.564319,1.03742 l -6.055363,-0.0845 -0.364229,2.42604 c -0.957294,6.38363 0.599184,16.86977 3.271597,22.04254 2.01035,3.89131 9.13849,8.98589 12.588753,8.99849 1.507331,0.004 3.10249,-1.20509 3.10249,-2.3545 0,-1.45629 3.730824,-5.51655 6.087868,-6.62448 3.062814,-1.4397 5.975784,-1.43936 10.696044,-0.003 5.46099,1.66125 7.62647,1.82464 9.66192,0.72846 3.35488,-1.80672 4.91284,0.9516 1.65855,2.93662 -2.88989,1.76272 -4.7979,1.83957 -9.59685,0.38049 -6.47594,-1.96896 -7.15244,-2.07123 -9.55459,-1.42441 -2.112561,0.56885 -5.222824,3.04416 -5.222824,4.15615 0,0.2952 0.515299,0.61531 1.144728,0.70895 1.506107,0.22406 2.286706,1.55238 1.87644,3.18702 -0.328844,1.31018 -1.338698,2.03945 -4.31875,3.12199 l -1.560998,0.56912 1.30409,1.30408 c 0.733208,0.73322 2.674501,1.66328 4.42931,2.12034 1.859452,0.48432 4.917604,1.98313 7.557814,3.70412 5.65694,3.68737 9.71006,5.19075 11.14485,4.13663 0.29304,-0.2153 0.79924,-0.87082 1.12522,-1.45691 0.32601,-0.58612 1.01833,-1.06514 1.53822,-1.06669 0.7292,-10e-4 1.53866,-1.64665 3.54476,-7.19359 3.44379,-9.52212 3.60073,-11.14551 1.7984,-18.68314 -0.94478,-3.95128 -1.33546,-6.73814 -1.12847,-8.03261 0.3725,-2.32954 0.48021,-2.27449 -6.07813,-3.11875 -6.24649,-0.8041 -11.93614,-2.41809 -15.5709,-4.41629 -3.007293,-1.65328 -3.092545,-1.66534 -4.617956,-0.76425 -1.909579,1.12803 -5.028724,1.19206 -5.915507,0.12352 -1.067019,-1.28568 -0.238453,-2.40329 1.778893,-2.40329 2.3625,0 3.145216,-1.02593 3.434184,-4.51061 0.314649,-3.79415 -1.182661,-7.009 -7.021223,-15.09287 -5.106432,-7.07012 -6.910302,-11.20171 -7.782214,-17.82133 -0.481066,-3.65239 -1.166149,-5.62568 -4.029308,-11.59365 l -3.450451,-7.19357 -2.617911,-0.39025 c -4.894252,-0.72872 -14.385038,-5.1303 -15.720516,-7.29115 -0.277638,-0.44923 -0.726525,-0.62146 -1.131721,-0.54959 z m 110.39479,34.07195 c 3.51653,0 0.77078,5.25865 -4.6342,8.87163 -2.73318,1.82703 -4.73145,2.28275 -6.90414,1.58052 -1.45377,-0.46988 -1.84392,-0.87889 -1.84392,-1.92848 0,-1.24566 0.17341,-1.3301 2.69922,-1.3301 2.26184,0 3.10237,-0.30501 5.16754,-1.86668 1.35636,-1.02568 2.89309,-2.64439 3.41468,-3.5968 0.61808,-1.12863 1.34876,-1.73009 2.10082,-1.73009 z m -30.86867,64.52758 c 0.65453,0.054 1.58598,0.42177 2.91063,1.11221 2.40655,1.25435 5.76769,1.48225 11.11231,0.75121 2.33898,-0.3199 3.563,-0.17681 6.07489,0.70572 1.73091,0.60813 3.80906,1.1057 4.61793,1.1057 1.63802,0 2.19439,0.85485 1.46993,2.26344 -0.64828,1.26048 -4.14965,1.15224 -7.63586,-0.2374 -2.29042,-0.91299 -3.02498,-0.98305 -5.23582,-0.4813 -3.51299,0.79729 -6.59036,0.73334 -9.74973,-0.20489 -2.9477,-0.87539 -5.30764,-2.95509 -4.81307,-4.24395 0.21625,-0.5635 0.5943,-0.82465 1.24879,-0.77074 z" />
  </g>
</svg>
