<?xml version="1.0" encoding="UTF-8" standalone="no"?>
<!-- Created with Inkscape (http://www.inkscape.org/) -->

<svg
   version="1.1"
   id="svg2"
   width="345.60001"
   height="345.60001"
   viewBox="0 0 345.60001 345.60001"
   sodipodi:docname="LogoJero_white.svg"
   inkscape:version="1.2 (dc2aedaf03, 2022-05-15)"
   xmlns:inkscape="http://www.inkscape.org/namespaces/inkscape"
   xmlns:sodipodi="http://sodipodi.sourceforge.net/DTD/sodipodi-0.dtd"
   xmlns="http://www.w3.org/2000/svg"
   xmlns:svg="http://www.w3.org/2000/svg">
  <defs
     id="defs6" />
  <sodipodi:namedview
     id="namedview4"
     pagecolor="#ffffff"
     bordercolor="#000000"
     borderopacity="0.25"
     inkscape:showpageshadow="2"
     inkscape:pageopacity="0.0"
     inkscape:pagecheckerboard="0"
     inkscape:deskcolor="#d1d1d1"
     showgrid="false"
     inkscape:zoom="1.7943653"
     inkscape:cx="234.06606"
     inkscape:cy="143.78343"
     inkscape:window-width="1920"
     inkscape:window-height="1057"
     inkscape:window-x="-8"
     inkscape:window-y="-8"
     inkscape:window-maximized="1"
     inkscape:current-layer="g8" />
  <g
     inkscape:groupmode="layer"
     inkscape:label="Image"
     id="g8">
    <path
       style="fill:#000000;stroke-width:0.631672"
       d="M 111.96141,344.69638 C 105.63249,342.98342 90.653815,337.5172 84.428798,334.6488 76.345779,330.92426 69.890429,325.68381 63.954282,318.02757 56.8538,308.86965 51.209618,303.08603 47.564859,301.23332 43.729685,299.2838 37.529381,293.46955 35.385444,289.81226 c -2.949106,-5.03084 -4.664501,-11.8015 -5.049666,-19.93085 -0.353104,-7.45323 -0.362246,-7.48879 -2.075625,-8.08609 -4.40677,-1.53619 -10.0595,-20.21429 -14.536342,-48.03182 -0.989168,-6.14633 -2.062652,-11.68927 -2.385519,-12.3176 -0.32286,-0.62832 -1.10822,-3.27429 -1.7452409,-5.87995 -1.5083858,-6.16986 -1.5211309,-12.88483 -0.029808,-15.70778 1.0118899,-1.9154 1.0470929,-2.64091 0.3541845,-7.29833 -0.4624582,-3.10846 -0.6552964,-8.81173 -0.4833871,-14.29664 0.3269657,-10.43209 1.2850695,-13.54972 5.5220715,-17.96861 1.332482,-1.38967 2.710739,-3.09519 3.062791,-3.79003 0.608653,-1.2013 2.097203,-8.7129 2.941642,-14.84431 0.648771,-4.71069 2.171684,-8.52351 4.482961,-11.22371 2.13774,-2.49747 2.189863,-2.69035 2.200577,-8.1427 0.02159,-11.012398 2.373906,-17.614437 8.644157,-24.261251 l 3.978325,-4.217229 0.01428,-8.450774 c 0.01428,-9.212056 1.066628,-13.636637 4.728307,-19.884857 3.586714,-6.120246 14.946391,-16.611012 20.852603,-19.257598 1.532961,-0.686923 3.325795,-2.254723 4.526858,-3.95869 5.377647,-7.629336 14.088054,-11.871119 32.579427,-15.8654903 4.08603,-0.8826395 10.45996,-2.4558211 14.16427,-3.4959744 14.64378,-4.1119023 22.97553,-1.6118774 27.84329,8.3546527 2.13545,4.372235 5.85405,20.138461 5.80414,24.608403 -0.0178,1.501663 -0.53519,5.118391 -1.15202,8.037182 -1.08639,5.140755 -1.08401,5.437433 0.076,9.475102 0.95919,3.338367 1.12624,5.375613 0.83916,10.233117 -0.1972,3.335716 -0.5448,6.996648 -0.77254,8.135366 l -0.41409,2.070435 5.0784,-2.642079 c 10.80994,-5.623962 15.9863,-12.615245 16.47287,-22.248528 0.3151,-6.238952 -0.82125,-10.171754 -5.62106,-19.45387 -2.05585,-3.975705 -3.73792,-8.009517 -3.73792,-8.964057 0,-0.954524 -0.28425,-1.911191 -0.63167,-2.125908 -0.94434,-0.583627 -0.76165,-3.843285 0.26303,-4.69372 1.11456,-0.924987 103.07628,-0.981348 105.50407,-0.05825 3.17924,1.208746 3.10639,0.0192 3.39649,55.46793 l 0.27195,51.979208 1.78556,0.92337 c 0.98206,0.50786 1.91218,0.92335 2.06693,0.92335 0.15475,0 1.19114,-1.41777 2.3031,-3.15062 2.67428,-4.16752 8.39971,-9.3404 12.3226,-11.13337 4.08301,-1.86617 11.07268,-2.97211 15.47597,-2.44863 4.89275,0.58161 12.2747,3.15998 15.6027,5.44969 6.80586,4.68257 13.71057,13.98214 16.67559,22.45943 1.65404,4.72904 2.2327,13.79775 1.24302,19.48081 -2.67857,15.38148 -15.59586,28.95619 -29.88256,31.4034 -3.5348,0.60549 -4.72316,0.51645 -9.67103,-0.7245 -7.50697,-1.8828 -11.81664,-4.29154 -17.73957,-9.9149 -5.05449,-4.79882 -6.09658,-5.29325 -8.08783,-3.83722 -1.08824,0.79572 -1.17564,3.6409 -1.64743,53.63564 -0.32606,34.55055 -0.72632,53.22149 -1.15826,54.02856 -0.36301,0.6783 -1.45258,1.53323 -2.42125,1.89988 -1.0668,0.40376 -22.43357,1.20604 -54.19008,2.03471 -28.83585,0.75245 -52.78414,1.47743 -53.21842,1.61104 -0.43427,0.13365 -0.7896,0.95375 -0.7896,1.8225 0,1.29575 0.64858,1.89514 3.60976,3.3361 4.80857,2.33996 9.72889,7.35485 12.10884,12.34158 7.82594,16.39782 -0.52943,35.45332 -18.24528,41.61066 -5.40729,1.87933 -13.68981,1.89551 -19.4763,0.038 l -4.00033,-1.28414 -2.8405,2.00299 c -2.59846,1.83231 -3.30723,2.01601 -8.31731,2.15548 -3.81091,0.10603 -6.82171,-0.21156 -9.89849,-1.04433 z m 16.20478,-8.17819 c 2.83439,-2.0355 2.97018,-2.06512 6.48885,-1.41464 1.97664,0.36539 3.82862,0.80943 4.11551,0.98674 0.2869,0.17727 2.50836,0.60416 4.93658,0.94854 9.78417,1.38765 20.05519,-3.98054 24.63078,-12.8734 1.33028,-2.58542 1.70642,-4.34686 1.92703,-9.02454 0.25554,-5.41736 0.14729,-6.08228 -1.59399,-9.79093 -2.57774,-5.49006 -4.49565,-7.54325 -9.50533,-10.17577 -5.84056,-3.06914 -6.44808,-3.87526 -7.20843,-9.56552 -0.78762,-5.89424 -0.42134,-7.56777 1.84449,-8.42747 1.04894,-0.39797 23.03896,-1.22302 55.12148,-2.06807 29.35699,-0.7733 53.59242,-1.59437 53.85653,-1.82466 0.26411,-0.23025 0.6905,-23.9008 0.94751,-52.60117 l 0.46732,-52.18249 1.54427,-1.64329 c 0.84934,-0.9038 3.04975,-2.37986 4.88978,-3.28012 4.94085,-2.41733 6.58109,-1.89275 13.17095,4.21244 6.66145,6.17143 9.2976,7.7515 15.86511,9.50929 l 5.13185,1.37351 4.42526,-1.34411 c 13.91978,-4.22801 23.42436,-19.046 22.00589,-34.308 -1.00247,-10.78621 -9.00303,-22.47314 -18.62841,-27.2117 -3.9628,-1.95087 -4.5078,-2.04848 -11.43857,-2.04848 -6.74599,0 -7.48671,0.12301 -10.14178,1.68393 -3.62497,2.13114 -8.6034,7.42192 -9.86993,10.48915 -1.46836,3.55602 -2.63681,4.56625 -5.28153,4.56625 -2.6851,0 -11.05547,-3.91735 -11.90516,-5.57162 -0.29973,-0.58352 -0.7384,-24.21686 -0.97484,-52.518527 -0.23644,-28.301682 -0.58258,-51.610393 -0.76919,-51.797157 -0.42279,-0.423179 -93.72213,-0.807217 -93.72213,-0.385785 0,0.16856 0.82569,1.706807 1.83485,3.418361 8.56767,14.5308 10.07272,26.10151 4.83512,37.172268 -2.70869,5.725367 -6.13282,9.447312 -12.72926,13.836433 -9.23737,6.146339 -17.38708,8.418205 -20.40439,5.688068 -1.56332,-1.414541 -1.67784,-2.924108 -0.40808,-5.379548 0.507,-0.980427 1.23985,-4.963846 1.62856,-8.852033 0.65136,-6.515505 0.60486,-7.404859 -0.59344,-11.350042 -2.09882,-6.909908 -4.33618,-8.8963 -11.11621,-9.869219 -1.73709,-0.24927 -3.6558,-0.888879 -4.26378,-1.421367 -1.4654,-1.283406 -1.40169,-3.466754 0.1419,-4.863709 1.04516,-0.945858 1.88166,-1.057042 5.16127,-0.685987 2.15269,0.24354 5.35774,0.99157 7.12235,1.662256 1.7646,0.6707 3.26202,1.219601 3.32758,1.219776 0.0655,1.74e-4 0.30854,-1.262187 0.53994,-2.805243 0.29733,-1.982774 -0.0792,-5.178308 -1.28369,-10.896342 -4.03107,-19.1352728 -7.94059,-21.8210793 -24.7426,-16.997938 -4.11392,1.180921 -9.89598,2.612081 -12.84906,3.180361 -8.123282,1.563198 -18.914917,5.112661 -22.239396,7.314691 -4.345188,2.878142 -6.621688,5.748 -7.092799,8.941502 -0.799789,5.421546 -1.852703,8.261977 -3.846127,10.375599 -2.232693,2.367367 -4.287399,2.740167 -6.093548,1.105625 -1.53947,-1.393193 -1.458777,-3.287528 0.215953,-5.070203 2.313879,-2.463012 0.8658,-2.277183 -2.392698,0.307074 -5.221305,4.140885 -10.886788,10.707958 -13.199063,15.299527 -2.809988,5.579884 -2.861953,6.932493 -0.2663,6.932493 2.233503,0 2.489772,-0.119992 11.292666,-5.287126 3.628172,-2.129669 7.749835,-5.111344 9.15925,-6.625958 2.830304,-3.041513 5.619009,-4.5104 8.563036,-4.5104 2.116177,0 3.10816,1.381337 1.973632,2.748342 -0.38215,0.460477 -1.784628,1.163748 -3.116604,1.562817 -1.486631,0.445399 -3.165075,1.643478 -4.346665,3.102684 -1.090165,1.34626 -4.709449,4.020622 -8.346145,6.167115 -5.236129,3.090542 -6.372436,4.023194 -6.15664,5.053379 0.145546,0.694843 0.751982,3.085304 1.347673,5.312125 1.377163,5.148151 0.671336,9.257244 -2.985041,17.377563 l -2.567798,5.702671 1.024123,5.312409 c 0.56328,2.921839 1.139384,5.427672 1.280264,5.568553 0.140943,0.140942 1.613751,-0.465752 3.273069,-1.348006 3.650029,-1.940749 9.46277,-2.121096 14.763022,-0.458052 3.643204,1.143131 4.948483,2.43108 4.266083,4.20941 -0.460493,1.20003 -0.582867,1.18993 -7.275105,-0.60076 -6.770124,-1.81151 -9.787622,-0.70128 -17.146564,6.3087 -7.198571,6.85718 -12.213476,8.88819 -14.823986,6.00359 -1.503948,-1.66185 -0.328899,-3.17022 2.46963,-3.17022 2.32756,0 6.65948,-2.60687 9.758195,-5.87226 l 2.131796,-2.24651 -1.402495,-2.897153 C 51.997883,98.00406 51.39924,95.304191 51.176001,92.047073 50.843722,87.199299 50.899416,86.949268 53.601031,81.158842 56.0995,75.803864 56.36534,74.77544 56.357642,70.494771 c -0.0063,-3.268291 -0.345676,-5.361042 -1.09569,-6.748014 -1.004377,-1.857417 -1.239806,-1.966711 -3.09227,-1.435412 -1.102801,0.316264 -2.668776,0.408464 -3.479913,0.204891 -1.366053,-0.342866 -1.474823,-0.178846 -1.474823,2.225011 0,2.003899 0.240524,2.595161 1.055708,2.595161 1.522771,0 3.366681,1.872622 3.361841,3.414187 -0.0063,1.891176 -1.428985,3.702167 -8.237043,10.482608 -5.248366,5.227097 -6.169321,6.471746 -7.142177,9.65236 -1.548469,5.062586 -1.955347,11.292667 -1.097356,16.802577 0.863006,5.54189 0.03508,7.65539 -2.99869,7.65539 -2.343845,0 -3.592286,2.64126 -4.525574,9.5745 -0.390149,2.89839 -1.12083,7.28891 -1.623713,9.7567 -0.883759,4.33684 -0.86016,4.67382 0.705822,10.07768 2.127081,7.34012 5.731524,15.65811 7.590878,17.51744 1.274026,1.27403 2.05007,1.47023 5.460591,1.38052 2.186537,-0.0575 5.771745,-0.4488 7.967154,-0.86954 10.406962,-1.9944 20.187219,3.75532 26.644475,15.66397 4.69726,8.66283 8.688329,14.34667 14.054688,20.01584 6.567374,6.93799 8.996055,8.35002 15.67131,9.11137 6.91322,0.78848 10.1179,1.92212 16.08467,5.68988 5.12246,3.23461 5.84794,3.46032 13.13473,4.08642 7.01602,0.60286 11.38624,2.98601 9.89634,5.39671 -0.47454,0.76782 -1.14072,0.74027 -4.63925,-0.19186 -2.24679,-0.5987 -5.31758,-1.09548 -6.82394,-1.10399 -4.7208,-0.0267 -8.26412,-1.209 -13.16147,-4.39188 -5.25944,-3.41825 -8.75087,-4.64097 -15.81259,-5.53756 -2.61709,-0.33226 -5.885979,-1.12481 -7.264237,-1.76116 -1.378243,-0.63638 -5.38447,-4.01896 -8.902728,-7.51686 -6.305932,-6.26947 -11.171451,-12.94724 -15.123634,-20.7567 -4.775969,-9.43736 -12.146148,-15.01067 -19.775596,-14.95434 -4.247797,0.0314 -12.571944,2.15911 -14.174362,3.62311 -3.546543,3.24023 -11.885286,5.17175 -13.568984,3.14301 -1.350541,-1.62729 -0.22524,-2.90892 2.92764,-3.33432 3.680789,-0.49663 7.050375,-1.50994 7.050375,-2.12021 0,-0.25516 -0.839023,-1.08423 -1.864511,-1.8424 -2.134081,-1.5778 -5.490589,-8.25082 -8.188532,-16.27951 -0.996984,-2.96687 -1.947601,-5.52922 -2.112486,-5.69412 -0.164886,-0.16481 -1.16668,0.68755 -2.226204,1.89427 -2.747139,3.12881 -3.521341,7.61417 -3.116421,18.0551 0.374646,9.66043 1.659115,15.15642 4.182073,17.89434 1.858216,2.01652 8.91423,5.61129 13.655599,6.957 l 3.17206,0.90028 -0.0016,-6.0819 c -0.0016,-8.79127 2.577052,-15.38912 5.568139,-14.24134 1.315326,0.50473 1.324611,2.30029 0.02492,4.81354 -1.360607,2.63115 -1.895906,10.97185 -0.9074,14.13864 0.424449,1.3598 2.60459,6.36091 4.844775,11.1136 2.262549,4.80013 4.368345,10.27541 4.737384,12.3176 1.915159,10.5983 3.824509,16.26981 6.617658,19.65695 1.179017,1.42977 1.231474,1.43511 3.408313,0.34651 3.44701,-1.72379 8.739421,-1.86732 12.212161,-0.33117 3.151965,1.39427 9.577492,6.20035 10.179484,7.61396 0.429575,1.00867 -0.707842,2.60454 -1.856338,2.60454 -0.432797,0 -2.600954,-1.38178 -4.818125,-3.07063 -5.371485,-4.09155 -7.437967,-4.74855 -11.905783,-3.7853 -1.922555,0.41447 -3.570541,0.80403 -3.662171,0.86565 -0.09158,0.0616 1.157226,2.07421 2.775245,4.47242 4.243624,6.28988 5.322125,9.04904 5.4035,13.82377 l 0.07031,4.12396 3.001341,1.84674 c 3.979339,2.44852 9.779765,4.18167 18.097643,5.40749 5.777173,0.85137 7.952632,1.53441 14.181792,4.45258 10.10383,4.73335 10.56693,4.71938 24.30533,-0.73284 3.87571,-1.53813 7.48808,-2.61254 8.05383,-2.39545 0.56423,0.21653 1.02589,1.05151 1.02589,1.85553 0,1.28605 -0.96842,1.84245 -8.05382,4.62716 -14.59715,5.73694 -15.4381,5.74618 -27.79361,0.3051 -1.19358,-0.52562 -0.986,3.05671 0.53667,9.26254 2.03403,8.28977 1.7771,11.10507 -2.02969,22.24014 -1.816267,5.31261 -3.675969,10.24262 -4.132684,10.95557 -0.753554,1.17629 -0.553631,1.56404 2.160792,4.19074 4.031472,3.90125 5.004042,4.30451 10.371792,4.30041 5.06196,-0.003 7.64026,-0.55526 13.65866,-2.9211 2.57903,-1.01383 4.91818,-1.4983 6.63257,-1.37373 2.33873,0.16998 2.64842,0.37384 2.64842,1.74339 0,1.29865 -0.4076,1.6356 -2.50602,2.07159 -1.3783,0.28636 -5.07359,1.42014 -8.21174,2.51951 -4.80786,1.68427 -6.65004,2.00441 -11.7066,2.03428 -7.11682,0.0421 -9.1906,-0.76856 -13.721227,-5.36354 l -3.018102,-3.061 -3.542305,0.36266 c -4.526351,0.46336 -8.496818,-0.81719 -14.021198,-4.5222 -4.685198,-3.14227 -8.019152,-4.97092 -8.019152,-4.39849 0,0.21199 1.302628,2.04343 2.894729,4.06992 5.783633,7.36162 12.737315,11.60747 28.928434,17.6634 17.207931,6.43622 22.949461,7.10002 28.282881,3.26985 z m 4.46585,-28.57426 c -2.844,-1.03538 -3.75192,-1.10787 -6.18938,-0.49412 -6.20778,1.56312 -15.98735,-0.6522 -17.00278,-3.85157 -0.7943,-2.50257 1.34275,-3.39292 3.87934,-1.61621 2.54926,1.78555 7.00749,2.34129 12.02239,1.49863 3.74299,-0.62892 5.17932,-0.62408 7.32391,0.0246 1.46727,0.44389 4.08903,1.13007 5.82612,1.52482 3.57164,0.81166 4.28447,1.45954 3.40792,3.09742 -0.80977,1.51302 -4.82573,1.43343 -9.26752,-0.1836 z m -2.98381,-44.69056 c -2.50379,-1.53291 -6.27746,-5.76895 -7.7998,-8.75546 -1.13492,-2.22657 -2.45643,-6.29196 -5.73654,-17.64786 -1.55963,-5.39944 -4.39536,-8.4371 -7.87629,-8.4371 -7.36035,0 -12.341465,-2.62575 -22.685749,-11.95858 -6.362848,-5.74068 -8.243105,-6.59728 -17.392625,-7.92392 -8.240915,-1.19491 -12.19097,-3.15698 -15.090715,-7.49589 -2.236011,-3.3458 -2.829448,-5.2854 -3.798987,-12.417 -0.711048,-5.23031 -1.357466,-7.0424 -3.438773,-9.63988 -1.312801,-1.63836 -1.332673,-1.80873 -0.328327,-2.8131 1.004347,-1.00434 1.174716,-0.99237 2.813084,0.19764 2.73793,1.98868 4.542286,6.31334 5.256493,12.59876 1.13102,9.95384 4.229657,13.69284 12.381609,14.94037 7.518074,1.15051 13.925125,2.89643 16.18888,4.41146 1.204619,0.80618 4.853964,3.8318 8.109654,6.72362 7.87905,6.99841 10.011476,8.19222 15.986516,8.94976 2.84163,0.36028 5.922,1.19928 7.35007,2.00191 2.25554,1.26768 5.63891,5.34513 5.63891,6.79573 0,1.73753 1.595,0.91322 5.69795,-2.9448 5.19524,-4.88508 6.03171,-5.45572 7.28971,-4.97299 1.9159,0.73523 0.71411,2.81987 -4.77593,8.28445 -6.2778,6.2487 -6.39155,6.55006 -4.66649,12.36088 2.36792,7.97639 6.87751,14.07465 11.02082,14.9033 2.46459,0.49292 3.53034,1.80147 2.48909,3.05612 -1.07415,1.29427 -4.33814,1.18728 -6.63256,-0.21742 z m 3.5867,-26.32619 c -1.62423,-0.70545 -2.05239,-1.23511 -1.89488,-2.34404 0.17548,-1.23526 0.53679,-1.4127 2.6228,-1.28775 1.40357,0.0841 3.41766,-0.36442 4.79722,-1.06822 2.34714,-1.19741 6.36414,-5.19962 6.36414,-6.34067 0,-0.32311 0.54877,-0.88117 1.21948,-1.24011 0.91936,-0.49202 1.46167,-0.41045 2.20356,0.33141 2.26989,2.26989 -2.37375,8.2771 -8.79226,11.37399 -3.667,1.76931 -3.75361,1.77696 -6.52006,0.57539 z m 50.26341,-4.49115 c -0.96157,-0.2833 -1.10544,-1.18544 -1.10544,-6.93176 0,-7.44384 0.36476,-8.02454 3.89094,-6.19443 1.18784,0.61649 4.04238,1.20577 6.53166,1.3484 7.24133,0.41485 10.45001,-2.06424 12.20284,-9.42825 0.78744,-3.30821 0.99058,-12.40591 1.20632,-54.02655 0.25679,-49.54022 -0.22054,-69.577423 -1.73671,-72.90506 -1.10256,-2.419856 -3.36626,-3.230278 -9.93534,-3.55697 l -5.84298,-0.290568 5e-5,-2.29342 6e-5,-2.293435 24.951,-0.0032 24.95103,-0.0032 v 2.308117 2.308117 l -4.57962,0.429956 c -6.21627,0.58358 -8.89261,1.340594 -10.3223,2.919679 -1.1606,1.2819 -1.21975,3.368697 -1.58017,55.747774 -0.41832,60.78826 -0.29359,59.05159 -4.95062,68.94451 -4.5774,9.72382 -12.25152,17.69551 -20.95637,21.769 -3.95976,1.85299 -10.17249,2.90361 -12.72435,2.15178 z m -60.51399,-30.90691 c -1.25761,-1.51533 -0.0343,-4.05572 2.96938,-6.16685 2.15362,-1.51362 3.6986,-1.96545 8.83724,-2.58439 7.33539,-0.88355 11.08361,-2.52666 14.79384,-6.48521 1.40655,-1.50066 2.99618,-2.7285 3.5325,-2.7285 1.08099,0 4.64036,3.53218 4.64036,4.60492 0,0.37472 0.59669,1.91386 1.32597,3.42034 1.45426,3.00411 1.25356,4.60819 -0.57658,4.60819 -1.54652,0 -2.93197,-1.6366 -3.87686,-4.57961 -0.4183,-1.30284 -0.91359,-2.36879 -1.10068,-2.36879 -0.18713,0 -1.65735,0.95919 -3.26729,2.13154 -5.17694,3.76984 -8.08577,4.89551 -14.11051,5.46066 -5.82713,0.54662 -8.00537,1.44751 -10.18144,4.21093 -1.35556,1.72141 -1.88306,1.80563 -2.98593,0.47677 z m -15.74494,-5.6286 c -1.10187,-1.32768 0.17984,-10.2491 2.47753,-17.24545 0.99592,-3.03242 1.96746,-7.0182 2.15902,-8.85727 0.32945,-3.16322 0.22602,-3.47912 -1.91534,-5.84938 -2.96372,-3.28046 -15.465218,-10.95091 -19.415591,-11.91261 -6.922304,-1.68524 -15.472405,-4.74085 -19.64235,-7.01974 -2.431934,-1.32905 -6.40464,-2.87483 -8.828272,-3.43507 -2.510803,-0.58039 -5.062602,-1.6197 -5.931465,-2.41586 -0.838706,-0.76847 -2.73447,-3.98253 -4.212833,-7.14235 -1.507645,-3.22242 -3.447786,-6.34285 -4.418405,-7.10632 -3.104382,-2.4419 -8.813765,-1.36404 -11.62339,2.1944 -1.304103,1.65163 -1.412319,2.34962 -1.21149,7.81451 0.21189,5.76603 0.166608,6.00859 -1.158019,6.19714 -1.922237,0.27367 -2.765007,-1.61699 -3.18271,-7.14005 -0.298758,-3.9504 -0.143165,-5.04349 1.077119,-7.56412 2.468027,-5.0983 9.328081,-8.2888 14.494168,-6.741 4.102093,1.22902 6.68589,4.00665 9.797193,10.53205 1.54677,3.24412 3.325112,6.1619 3.951849,6.48394 0.62672,0.32204 2.365732,0.77291 3.864426,1.00189 1.498726,0.22898 5.336138,1.7336 8.527579,3.34356 5.163737,2.60491 17.337185,6.88203 17.922257,6.29695 0.123325,-0.12331 -0.09825,-1.72797 -0.492443,-3.56585 -1.027345,-4.79039 -0.445558,-8.26324 2.031626,-12.12745 2.240566,-3.4951 2.165635,-2.93172 1.611005,-12.11299 -0.147292,-2.43758 1.639923,-3.65459 3.149664,-2.14483 0.84677,0.84675 1.08166,2.30527 1.117292,6.9377 0.04301,5.59092 -0.05095,6.01179 -2.007836,8.98962 -1.702617,2.59106 -2.050562,3.72281 -2.039055,6.63256 0.01778,4.50895 1.787517,8.55867 3.980562,9.1091 0.883528,0.22177 1.767994,0.91227 1.965473,1.53447 0.197479,0.62223 2.167306,2.18906 4.377366,3.48192 2.21009,1.29285 6.07318,4.07593 8.58464,6.18465 l 4.56631,3.83404 3.88978,-0.34991 c 2.13939,-0.19246 7.32912,-0.53352 11.53271,-0.75794 8.19728,-0.43761 10.35973,0.0372 10.35973,2.27505 0,1.6465 -2.20277,2.13432 -7.21441,1.59764 -2.66191,-0.2851 -5.92329,-0.098 -9.61872,0.55137 -3.07517,0.54051 -6.58612,1.05749 -7.80209,1.14885 -2.0874,0.15698 -2.19936,0.2807 -2.00547,2.21768 0.11888,1.18743 -0.72948,4.77926 -2.01412,8.52757 -1.27462,3.71908 -2.40492,8.49291 -2.65506,11.21358 -0.23956,2.60565 -0.71821,5.09287 -1.06368,5.52714 -0.83825,1.05379 -2.04106,0.99768 -2.98455,-0.13919 z m 34.61444,-37.21475 c -10.53046,-5.63772 -10.65826,-5.72331 -10.4821,-7.02107 0.31338,-2.30839 3.15271,-1.89862 8.48908,1.22516 2.70663,1.58438 5.215,2.8807 5.57415,2.8807 0.35916,0 0.93361,-0.63787 1.27655,-1.41755 1.30175,-2.95944 4.49383,-1.78436 3.7462,1.37906 -0.49616,2.09936 -2.70091,5.09189 -3.75144,5.09189 -0.47223,0 -2.65582,-0.96217 -4.85244,-2.13819 z m -25.20739,-5.87746 c -3.76996,-3.40194 -4.48975,-5.56195 -5.01196,-15.0404 -0.49217,-8.93367 -2.00639,-14.6152 -5.26702,-19.76265 -1.85117,-2.9224 -5.09076,-5.2906 -6.49837,-4.75043 -0.480207,0.18436 -1.29274,-0.0143 -1.805611,-0.43893 -3.020657,-2.5069 -13.862098,4.63117 -17.750237,11.68688 -0.98549,1.78836 -3.195312,1.98638 -3.71996,0.33335 -1.360672,-4.28707 10.822934,-15.14843 18.786692,-16.74784 1.714856,-0.34443 1.73714,-0.41142 1.739647,-5.23231 0.0063,-13.137736 4.537529,-28.176915 11.485919,-38.126335 2.30018,-3.293655 2.52874,-4.018846 3.11681,-9.888552 0.34904,-3.483817 1.2613,-9.417091 2.02722,-13.185015 1.32116,-6.499333 1.47304,-6.850802 2.96056,-6.850802 2.13523,0 2.26005,1.740219 0.70894,9.882648 -0.68531,3.59746 -1.44535,8.743802 -1.68896,11.43629 l -0.44295,4.89547 h 1.90268 c 1.04649,0 3.77565,0.578501 6.06476,1.285534 4.58675,1.4167 6.29906,3.18563 4.66521,4.819458 -0.7845,0.784504 -1.36638,0.731301 -4.39529,-0.401957 -1.92009,-0.718413 -5.02235,-1.371655 -6.89387,-1.451666 l -3.40283,-0.145546 -2.66365,4.050891 c -4.968,7.555293 -8.49849,19.892682 -9.35592,32.694432 l -0.4303,6.42503 2.03183,1.0507 c 1.11752,0.57789 3.28461,2.20544 4.81573,3.6168 l 2.78391,2.56611 3.17509,-1.72812 c 3.49779,-1.90371 5.00976,-1.77788 5.0088,0.41689 -4.8e-4,1.07134 -0.81086,1.89614 -3.15836,3.21462 -1.73674,0.97546 -3.1541,1.97034 -3.14967,2.21084 0.003,0.24055 0.69306,2.58189 1.53031,5.20297 1.11447,3.48902 1.59784,6.70403 1.80444,12.00177 0.32758,8.40078 1.20754,11.0439 4.51708,13.56823 1.5845,1.20857 2.24962,2.17607 2.11996,3.08374 -0.32217,2.25546 -2.66434,1.96653 -5.61063,-0.69215 z m 10.21882,-22.5487 c -1.29414,-1.55935 0.0891,-2.72517 4.25275,-3.58437 6.01333,-1.24088 9.31869,-3.49056 12.39552,-8.43655 1.11105,-1.78604 1.10972,-1.86752 -0.0429,-2.66308 -3.09357,-2.13526 -3.36375,-2.99367 -1.34335,-4.26811 1.51405,-0.95503 5.23466,1.01342 6.48478,3.43087 1.00349,1.94053 0.98322,2.02056 -1.39271,5.49827 -1.32606,1.941 -3.37157,4.46994 -4.54556,5.61987 -3.79572,3.71789 -14.01498,6.56422 -15.80857,4.4031 z m -2.9021,-35.809982 c -6.37083,-2.124065 -9.37846,-2.127636 -12.0651,-0.01428 -2.11927,1.667032 -3.17919,1.676254 -4.05741,0.0354 -0.58355,-1.090405 -0.39349,-1.568976 1.22267,-3.078734 2.16808,-2.025278 6.79682,-3.42528 9.37857,-2.83662 0.95219,0.217128 4.51399,1.258376 7.91513,2.313893 6.91944,2.14743 8.76603,1.994217 13.33509,-1.106434 1.2814,-0.869594 2.96458,-1.581054 3.74041,-1.581054 2.74256,0 5.88084,3.278323 5.09602,5.323457 -0.4891,1.274598 -2.05105,1.270471 -3.46503,-0.0096 -1.019,-0.922177 -1.4348,-0.846324 -5.19343,0.947509 -5.22165,2.492059 -8.44722,2.493307 -15.90692,0.0063 z m -42.28623,-0.09174 c -0.540837,-0.77214 -0.983348,-1.620607 -0.983348,-1.885511 0,-0.264918 -0.901179,-1.946268 -2.00263,-3.736355 -1.101466,-1.790088 -2.917458,-5.781204 -4.03559,-8.869158 -2.6017,-7.185192 -4.051096,-9.252023 -9.279845,-13.232887 -4.190278,-3.190233 -5.340695,-5.240589 -3.365618,-5.998475 1.114132,-0.427528 2.911791,0.481999 7.071849,3.578032 l 3.232468,2.405667 0.864324,-1.614989 c 1.23168,-2.30145 8.876856,-9.246673 14.623349,-13.284548 5.676592,-3.988736 6.788486,-5.343948 6.788486,-8.273865 0,-3.04064 1.542772,-5.870008 4.179375,-7.664794 l 2.27856,-1.551057 -1.751055,-1.506217 c -1.345403,-1.157237 -2.203236,-1.418712 -3.702724,-1.128556 -7.434777,1.438619 -9.985148,1.207841 -11.172656,-1.011029 -1.037725,-1.939014 0.700588,-3.194994 3.210834,-2.31991 3.96031,1.380576 8.941917,-1.373655 13.920091,-7.696108 5.26775,-6.690224 9.17946,-8.418443 17.08928,-7.550152 2.47816,0.27203 6.1375,0.346629 8.13184,0.165783 3.09311,-0.280457 3.69033,-0.16145 4.06302,0.809724 0.26678,0.695272 0.0489,1.525216 -0.55942,2.131796 -0.81265,0.810184 -2.65567,0.993267 -9.99824,0.993267 -10.58187,0 -10.58361,6.35e-4 -15.97715,6.676209 l -3.61909,4.479275 2.25966,2.070101 2.25962,2.070117 4.44007,-1.489155 c 5.66869,-1.901209 13.27522,-2.977486 16.01883,-2.266549 1.64744,0.426908 2.09198,0.869133 2.09198,2.081132 0,1.484791 -0.20085,1.554484 -5.69957,1.977773 -9.37269,0.721525 -21.07801,5.187038 -22.858733,8.720503 -0.437718,0.868545 -0.800027,2.655125 -0.805153,3.970182 -0.01428,3.399472 -1.354419,5.057045 -7.522027,9.296589 -7.028613,4.831411 -11.599025,8.878381 -14.050259,12.441114 l -1.964235,2.854921 1.262884,2.300007 c 0.694605,1.264996 1.756725,3.863379 2.36024,5.774189 0.603548,1.91081 2.34421,5.791981 3.868157,8.624826 2.90603,5.401976 3.443915,8.03688 1.771629,8.6786 -1.382337,0.530457 -1.340689,0.547884 -2.439203,-1.020488 z m 8.175902,222.005862 c 0.347421,-0.25526 0.944969,-1.0326 1.327881,-1.72743 0.382895,-0.69485 1.259059,-1.34795 1.947045,-1.45134 0.91159,-0.13697 1.555818,-1.165 2.375161,-3.79002 0.618355,-1.98113 1.800928,-5.28042 2.627953,-7.33173 3.048578,-7.56161 3.221978,-10.12022 1.257122,-18.54844 -0.964507,-4.13722 -1.664509,-8.5565 -1.555594,-9.82063 0.108881,-1.26414 -0.07857,-2.55124 -0.416561,-2.86022 -0.338025,-0.30897 -3.292877,-0.91567 -6.566326,-1.34822 -7.767851,-1.02642 -14.097861,-2.80216 -18.200177,-5.10567 -3.763909,-2.11347 -4.732892,-2.25834 -5.8778,-0.87881 -1.120054,1.3496 -6.22635,1.00244 -7.160082,-0.48679 -0.933858,-1.48946 0.228842,-2.55802 2.871302,-2.63883 2.811893,-0.0861 3.833747,-2.0957 3.461786,-6.80851 -0.340453,-4.31363 -1.766597,-7.06126 -8.809083,-16.97202 -5.804822,-8.16899 -7.586354,-12.39518 -8.907854,-21.13138 -0.714572,-4.72393 -1.519026,-7.01998 -4.758336,-13.58096 l -3.898345,-7.89594 -3.137411,-0.47011 c -4.757558,-0.71295 -12.509618,-3.95425 -16.235393,-6.78839 -1.830998,-1.39283 -3.644961,-2.53241 -4.031019,-2.53241 -0.964406,0 -0.320468,8.21448 0.967526,12.34235 0.862866,2.76535 1.360207,3.36138 3.789795,4.54176 5.0769,2.46654 7.92726,7.89711 9.202477,17.5327 0.413147,3.12165 0.843166,5.76774 0.955651,5.88023 0.758854,0.75886 9.289686,3.26418 11.151753,3.27507 3.68555,0.0216 7.509455,3.94338 6.474523,6.64038 -0.580532,1.51284 -2.335066,1.11348 -4.138757,-0.94202 -1.32261,-1.5073 -2.175237,-1.89501 -4.167105,-1.89501 -1.377353,0 -3.712754,-0.42639 -5.189815,-0.94751 -3.582604,-1.26403 -3.85884,-1.21078 -3.166473,0.61029 0.765251,2.0128 -0.752934,3.80883 -2.451282,2.89992 -1.503805,-0.80481 -2.572353,-4.68266 -3.294718,-11.95674 -0.707124,-7.12079 -1.968574,-11.97061 -3.655399,-14.05375 l -1.206198,-1.48958 -0.419899,2.83568 c -0.492122,3.32344 0.18737,7.97272 3.183985,21.78585 2.218122,10.22461 5.361183,20.74425 6.768011,22.65212 0.708524,0.96086 1.02917,0.94166 4.153789,-0.24885 3.030085,-1.15446 3.891393,-1.21978 8.193791,-0.62138 4.073983,0.56664 5.25673,0.50725 7.749232,-0.38903 4.87636,-1.75352 6.746871,0.30842 2.880603,3.17542 -1.599814,1.18633 -2.569735,1.31926 -8.962883,1.22835 l -7.168938,-0.1019 -0.436447,3.49321 c -0.741348,5.93353 0.0646,14.54279 1.893922,20.23092 1.388781,4.31833 2.263676,5.83984 5.151818,8.95937 4.798873,5.18334 11.41718,8.29885 13.843147,6.51653 0.347421,-0.25526 1.094514,-1.46708 1.660176,-2.69297 2.496357,-5.40993 7.404049,-8.82538 12.681239,-8.82538 1.58853,0 5.340487,0.71063 8.337686,1.57918 6.42286,1.86127 7.867257,1.93446 10.326141,0.52326 3.737356,-2.14494 5.5533,1.08987 2.023009,3.60367 -2.853827,2.0321 -6.122547,2.24113 -10.798935,0.69059 -9.055607,-3.00257 -13.172557,-2.83202 -16.454863,0.68174 -2.072974,2.21911 -2.229995,3.02832 -0.587564,3.02832 1.677825,0 2.729883,1.51737 2.491771,3.59392 -0.165814,1.44589 -0.824882,2.07159 -3.551986,3.37209 l -3.34843,1.59679 1.453666,1.36564 c 0.799503,0.75111 2.874794,1.68303 4.611758,2.07095 3.115572,0.69583 7.037613,2.66885 10.738178,5.40203 4.46618,3.29862 10.41258,5.39127 12.001776,4.2237 z"
       id="path172" />
  </g>
</svg>
